<svg width="128" height="24" viewBox="0 0 128 24" fill="none" xmlns="http://www.w3.org/2000/svg">
<path d="M10.2689 3.45105C11.0665 2.18298 12.9335 2.18298 13.7311 3.45105L15.6599 6.5178C15.9406 6.96396 16.3864 7.28413 16.9023 7.41009L20.4489 8.27584C21.9153 8.63382 22.4922 10.3891 21.5187 11.5308L19.1643 14.2919C18.8218 14.6936 18.6515 15.2116 18.6897 15.7356L18.9527 19.3374C19.0615 20.8268 17.5511 21.9116 16.1518 21.3491L12.7678 19.9888C12.2755 19.7909 11.7245 19.7909 11.2322 19.9888L7.84818 21.3491C6.44893 21.9116 4.93851 20.8268 5.04726 19.3374L5.31026 15.7356C5.34853 15.2116 5.17825 14.6936 4.83572 14.2919L2.48129 11.5308C1.50776 10.3891 2.08469 8.63382 3.55115 8.27584L7.09768 7.41009C7.61365 7.28413 8.05944 6.96396 8.34006 6.5178L10.2689 3.45105Z" fill="#E1E103"/>
<path d="M36.2689 3.45105C37.0665 2.18298 38.9335 2.18298 39.7311 3.45105L41.6599 6.5178C41.9406 6.96396 42.3864 7.28413 42.9023 7.41009L46.4489 8.27584C47.9153 8.63382 48.4922 10.3891 47.5187 11.5308L45.1643 14.2919C44.8218 14.6936 44.6515 15.2116 44.6897 15.7356L44.9527 19.3374C45.0615 20.8268 43.5511 21.9116 42.1518 21.3491L38.7678 19.9888C38.2755 19.7909 37.7245 19.7909 37.2322 19.9888L33.8482 21.3491C32.4489 21.9116 30.9385 20.8268 31.0473 19.3374L31.3103 15.7356C31.3485 15.2116 31.1782 14.6936 30.8357 14.2919L28.4813 11.5308C27.5078 10.3891 28.0847 8.63382 29.5511 8.27584L33.0977 7.41009C33.6136 7.28413 34.0594 6.96396 34.3401 6.5178L36.2689 3.45105Z" fill="#E1E103"/>
<path d="M62.2689 3.45105C63.0665 2.18298 64.9335 2.18298 65.7311 3.45105L67.6599 6.5178C67.9406 6.96396 68.3864 7.28413 68.9023 7.41009L72.4489 8.27584C73.9153 8.63382 74.4922 10.3891 73.5187 11.5308L71.1643 14.2919C70.8218 14.6936 70.6515 15.2116 70.6897 15.7356L70.9527 19.3374C71.0615 20.8268 69.5511 21.9116 68.1518 21.3491L64.7678 19.9888C64.2755 19.7909 63.7245 19.7909 63.2322 19.9888L59.8482 21.3491C58.4489 21.9116 56.9385 20.8268 57.0473 19.3374L57.3103 15.7356C57.3485 15.2116 57.1782 14.6936 56.8357 14.2919L54.4813 11.5308C53.5078 10.3891 54.0847 8.63382 55.5511 8.27584L59.0977 7.41009C59.6136 7.28413 60.0594 6.96396 60.3401 6.5178L62.2689 3.45105Z" fill="#E1E103"/>
<path d="M88.2689 3.45105C89.0665 2.18298 90.9335 2.18298 91.7311 3.45105L93.6599 6.5178C93.9406 6.96396 94.3864 7.28413 94.9023 7.41009L98.4489 8.27584C99.9153 8.63382 100.492 10.3891 99.5187 11.5308L97.1643 14.2919C96.8218 14.6936 96.6515 15.2116 96.6897 15.7356L96.9527 19.3374C97.0615 20.8268 95.5511 21.9116 94.1518 21.3491L90.7678 19.9888C90.2755 19.7909 89.7245 19.7909 89.2322 19.9888L85.8482 21.3491C84.4489 21.9116 82.9385 20.8268 83.0473 19.3374L83.3103 15.7356C83.3485 15.2116 83.1782 14.6936 82.8357 14.2919L80.4813 11.5308C79.5078 10.3891 80.0847 8.63382 81.5511 8.27584L85.0977 7.41009C85.6136 7.28413 86.0594 6.96396 86.3401 6.5178L88.2689 3.45105Z" fill="#E1E103"/>
<path d="M114.269 3.45105C115.067 2.18298 116.933 2.18298 117.731 3.45105L119.66 6.5178C119.941 6.96396 120.386 7.28413 120.902 7.41009L124.449 8.27584C125.915 8.63382 126.492 10.3891 125.519 11.5308L123.164 14.2919C122.822 14.6936 122.651 15.2116 122.69 15.7356L122.953 19.3374C123.061 20.8268 121.551 21.9116 120.152 21.3491L116.768 19.9888C116.276 19.7909 115.724 19.7909 115.232 19.9888L111.848 21.3491C110.449 21.9116 108.939 20.8268 109.047 19.3374L109.31 15.7356C109.349 15.2116 109.178 14.6936 108.836 14.2919L106.481 11.5308C105.508 10.3891 106.085 8.63382 107.551 8.27584L111.098 7.41009C111.614 7.28413 112.059 6.96396 112.34 6.5178L114.269 3.45105Z" fill="#E1E103"/>
</svg>
