<svg width="22" height="23" viewBox="0 0 22 23" fill="none" xmlns="http://www.w3.org/2000/svg">
<g clip-path="url(#clip0_151_96)" filter="url(#filter0_i_151_96)">
<path d="M21.1475 5.26894C20.4077 5.59675 19.613 5.81824 18.7776 5.91835C19.6396 5.40254 20.2845 4.5907 20.592 3.63433C19.7821 4.1154 18.8957 4.45402 17.9713 4.63547C17.3497 3.97177 16.5264 3.53185 15.6291 3.38402C14.7319 3.2362 13.8109 3.38874 13.0092 3.81795C12.2076 4.24717 11.57 4.92905 11.1956 5.75773C10.8212 6.58641 10.7308 7.51552 10.9385 8.40082C9.29745 8.31843 7.69203 7.89188 6.22647 7.14887C4.7609 6.40586 3.46794 5.36299 2.4315 4.08795C2.07712 4.69926 1.87334 5.40804 1.87334 6.16288C1.87295 6.84241 2.04029 7.51153 2.36052 8.11088C2.68075 8.71022 3.14396 9.22126 3.70906 9.59865C3.05369 9.5778 2.41278 9.40071 1.83968 9.08213V9.13529C1.83961 10.0884 2.16929 11.0121 2.77276 11.7498C3.37624 12.4874 4.21634 12.9936 5.15053 13.1824C4.54257 13.3469 3.90516 13.3712 3.28646 13.2533C3.55003 14.0733 4.06345 14.7904 4.75483 15.3042C5.44621 15.818 6.28095 16.1027 7.14218 16.1185C5.68019 17.2662 3.87464 17.8887 2.01599 17.886C1.68674 17.8861 1.35778 17.8668 1.03079 17.8284C2.91743 19.0414 5.11362 19.6852 7.35658 19.6827C14.9493 19.6827 19.1 13.3941 19.1 7.94012C19.1 7.76293 19.0956 7.58396 19.0876 7.40677C19.895 6.8229 20.5919 6.09988 21.1457 5.2716L21.1475 5.26894Z" fill="#008080"/>
</g>
<defs>
<filter id="filter0_i_151_96" x="0.200623" y="0.89502" width="21.2632" height="25.2632" filterUnits="userSpaceOnUse" color-interpolation-filters="sRGB">
<feFlood flood-opacity="0" result="BackgroundImageFix"/>
<feBlend mode="normal" in="SourceGraphic" in2="BackgroundImageFix" result="shape"/>
<feColorMatrix in="SourceAlpha" type="matrix" values="0 0 0 0 0 0 0 0 0 0 0 0 0 0 0 0 0 0 127 0" result="hardAlpha"/>
<feOffset dy="4"/>
<feGaussianBlur stdDeviation="7.5"/>
<feComposite in2="hardAlpha" operator="arithmetic" k2="-1" k3="1"/>
<feColorMatrix type="matrix" values="0 0 0 0 0 0 0 0 0 0 0 0 0 0 0 0 0 0 0.2 0"/>
<feBlend mode="normal" in2="shape" result="effect1_innerShadow_151_96"/>
</filter>
<clipPath id="clip0_151_96">
<rect width="21.2632" height="21.2632" fill="white" transform="translate(0.200623 0.89502)"/>
</clipPath>
</defs>
</svg>
